<svg width="23" height="22" viewBox="0 0 23 22" fill="none" xmlns="http://www.w3.org/2000/svg">
<path d="M22.0417 17.4167C22.0417 17.9029 21.8398 18.3692 21.4803 18.713C21.1209 19.0568 20.6334 19.25 20.125 19.25H2.87504C2.36671 19.25 1.8792 19.0568 1.51975 18.713C1.16031 18.3692 0.958374 17.9029 0.958374 17.4167V7.33333C0.958374 6.8471 1.16031 6.38079 1.51975 6.03697C1.8792 5.69315 2.36671 5.5 2.87504 5.5H6.70837L8.62504 2.75H14.375L16.2917 5.5H20.125C20.6334 5.5 21.1209 5.69315 21.4803 6.03697C21.8398 6.38079 22.0417 6.8471 22.0417 7.33333V17.4167Z" fill="#3A3737"/>
<path d="M11.5 15.5833C13.6171 15.5833 15.3333 13.9417 15.3333 11.9167C15.3333 9.89162 13.6171 8.25 11.5 8.25C9.38287 8.25 7.66663 9.89162 7.66663 11.9167C7.66663 13.9417 9.38287 15.5833 11.5 15.5833Z" fill="white"/>
</svg>
