<svg width="30" height="18" viewBox="0 0 30 18" fill="none" xmlns="http://www.w3.org/2000/svg">
<path d="M30 15.2957V17.845H26.1761V15.2957C26.1761 13.32 25.2838 11.5483 23.8562 10.2736C30 10.8982 30 15.2957 30 15.2957ZM22.3521 0C24.4681 0 26.1761 1.70802 26.1761 3.82393C26.1768 4.4245 26.0359 5.01679 25.7647 5.55267C25.4936 6.08855 25.0999 6.55293 24.6156 6.90809C24.1313 7.26325 23.57 7.49918 22.9774 7.59671C22.3848 7.69424 21.7775 7.65062 21.205 7.46941C21.9315 6.43695 22.3521 5.1878 22.3521 3.82393C22.3521 2.47281 21.9315 1.21091 21.205 0.17845C21.5619 0.063732 21.957 0 22.3521 0ZM15.9789 0C18.0948 0 19.8029 1.70802 19.8029 3.82393C19.8029 5.93984 18.0948 7.64786 15.9789 7.64786C13.863 7.64786 12.155 5.93984 12.155 3.82393C12.155 1.70802 13.863 0 15.9789 0ZM23.6268 15.2957V17.845H8.33107V15.2957C8.33107 12.4788 11.7599 10.1971 15.9789 10.1971C20.198 10.1971 23.6268 12.4788 23.6268 15.2957ZM0 10.3501L2.70989 7.64786L0 4.94562L1.80489 3.13562L4.50714 5.85061L7.20938 3.13562L9.01938 4.94562L6.30439 7.64786L9.01938 10.3501L7.20938 12.1601L4.50714 9.4451L1.80489 12.1601L0 10.3501Z" fill="#E94040"/>
</svg>
