<svg width="235" height="174" viewBox="0 0 235 174" fill="none" xmlns="http://www.w3.org/2000/svg">
<rect x="37" y="12" width="162" height="150" fill="#DCE9F2"/>
<rect x="18" width="194" height="19" rx="9.5" fill="#DCE9F2"/>
<rect x="10" y="39" width="212" height="19" rx="9.5" fill="#DCE9F2"/>
<rect y="78" width="235" height="19" rx="9.5" fill="#DCE9F2"/>
<rect x="17" y="116" width="193" height="20" rx="10" fill="#DCE9F2"/>
<rect x="24" y="156" width="181" height="18" rx="9" fill="#DCE9F2"/>
<rect x="21" y="19" width="26" height="20" rx="10" fill="#FFFEFE"/>
<rect x="189" y="19" width="31" height="20" rx="10" fill="white"/>
<rect x="191" y="58" width="26" height="20" rx="10" fill="white"/>
<rect x="22" y="97" width="25" height="19" rx="9.5" fill="white"/>
<rect x="16" y="58" width="32" height="20" rx="10" fill="white"/>
<rect x="26" y="136" width="22" height="20" rx="10" fill="white"/>
<rect x="182" y="136" width="30" height="20" rx="10" fill="white"/>
<rect x="114" y="112" width="15" height="56" fill="#C2074B"/>
<rect x="103" y="168" width="40" height="4" fill="#C2074B"/>
<rect x="32" y="113" width="164" height="3" fill="#E20B4E"/>
<rect x="149" y="9" width="18" height="14" fill="white"/>
<path d="M44 77C44 47.7289 67.7289 24 97 24H147C174.062 24 196 45.938 196 73V113H44V77Z" fill="#FD1755"/>
<path d="M107 37.1048L185.229 37L185.193 37L185.717 37.6023L186.235 38.2183L186.75 38.8579L187.248 39.5015L188.156 40.7506L188.379 41.0669L188.585 41.3697L189 41.9937L107 42V37.1048Z" fill="#E20B4E"/>
<g filter="url(#filter0_d_601_612)">
<path d="M44 59.5C44 39.8939 59.8939 24 79.5 24C99.1061 24 115 39.8939 115 59.5V113H44V59.5Z" fill="#8D0234"/>
<path d="M47 59.5C47 41.5507 61.5507 27 79.5 27C97.4493 27 112 41.5507 112 59.5V110H47V59.5Z" stroke="#E20B4E" stroke-width="6"/>
</g>
<rect x="111" y="94" width="4" height="19" fill="#FD1755"/>
<rect x="44" y="94" width="4" height="19" fill="#FD1755"/>
<rect x="48" y="109" width="65" height="4" fill="#FD1755"/>
<rect x="115" y="94" width="81" height="19" fill="#E20B4E"/>
<rect x="117" y="70" width="79" height="10" fill="#C2074B"/>
<path d="M113 47.1048L190.798 47H192.11L192.43 47.7112L192.676 48.2806L192.991 49.074L193.157 49.499L193.417 50.1936L193.587 50.6699L193.775 51.2106L193.915 51.6373L194 51.9019L113 52V47.1048Z" fill="#E20B4E"/>
<mask id="path-28-inside-1_601_612" fill="white">
<path d="M138 9H149V62H138V9Z"/>
</mask>
<path d="M138 9H149V62H138V9Z" fill="white"/>
<path d="M141 62V9H135V62H141Z" fill="#D9D9D9" mask="url(#path-28-inside-1_601_612)"/>
<circle cx="143.5" cy="68.5" r="9.5" fill="#FFCF31"/>
<circle cx="143.5" cy="68.5" r="6.5" fill="#FEF574"/>
<path d="M54 64.1173C54 59.1012 58.1008 55.0531 63.1165 55.1181L109.557 55.7194C109.684 55.7211 109.787 55.8248 109.787 55.9522L109.912 57.1792L109.984 58.3405V60.1317L110 61.8814V65.3281L109.984 68.601L109.988 82.0465V95.5232V102.262V105.642V107.321V108.161V108.58V108.79C109.988 108.906 109.894 109 109.778 109L63 109C58.0294 109 54 104.971 54 100V64.1173Z" fill="#FECF3B"/>
<g filter="url(#filter1_df_601_612)">
<path d="M89.8014 83H90.2224L90.6435 82.7974L91.4706 82.2676L93.1324 80.9899L96.423 78.3043L103.004 72.9332L110 67.1018V64.1861L100.058 70.1022L95.3643 72.9332L91.713 75.3157L91.0881 75.5422L90.5789 75.7431H89.8418L88.8778 75.3157L55 57L72.4108 70.2504L81.1162 76.8756L85.4689 80.1881L87.6453 81.8444L88.7335 82.6726L89.2901 82.9167L89.8014 83Z" fill="url(#paint0_linear_601_612)" shape-rendering="crispEdges"/>
</g>
<g filter="url(#filter2_f_601_612)">
<rect width="14.3609" height="3.9818" rx="1.9909" transform="matrix(0.912803 0.4084 -0.419463 0.907772 70.589 60.095)" fill="#FEF357"/>
</g>
<g filter="url(#filter3_f_601_612)">
<path d="M110 68V109H59L110 68Z" fill="url(#paint1_linear_601_612)"/>
</g>
<defs>
<filter id="filter0_d_601_612" x="44" y="20" width="80" height="97" filterUnits="userSpaceOnUse" color-interpolation-filters="sRGB">
<feFlood flood-opacity="0" result="BackgroundImageFix"/>
<feColorMatrix in="SourceAlpha" type="matrix" values="0 0 0 0 0 0 0 0 0 0 0 0 0 0 0 0 0 0 127 0" result="hardAlpha"/>
<feOffset dx="5"/>
<feGaussianBlur stdDeviation="2"/>
<feComposite in2="hardAlpha" operator="out"/>
<feColorMatrix type="matrix" values="0 0 0 0 0 0 0 0 0 0 0 0 0 0 0 0 0 0 0.25 0"/>
<feBlend mode="normal" in2="BackgroundImageFix" result="effect1_dropShadow_601_612"/>
<feBlend mode="normal" in="SourceGraphic" in2="effect1_dropShadow_601_612" result="shape"/>
</filter>
<filter id="filter1_df_601_612" x="54" y="55" width="59" height="30" filterUnits="userSpaceOnUse" color-interpolation-filters="sRGB">
<feFlood flood-opacity="0" result="BackgroundImageFix"/>
<feColorMatrix in="SourceAlpha" type="matrix" values="0 0 0 0 0 0 0 0 0 0 0 0 0 0 0 0 0 0 127 0" result="hardAlpha"/>
<feOffset dx="1"/>
<feGaussianBlur stdDeviation="1"/>
<feComposite in2="hardAlpha" operator="out"/>
<feColorMatrix type="matrix" values="0 0 0 0 0 0 0 0 0 0 0 0 0 0 0 0 0 0 0.25 0"/>
<feBlend mode="normal" in2="BackgroundImageFix" result="effect1_dropShadow_601_612"/>
<feBlend mode="normal" in="SourceGraphic" in2="effect1_dropShadow_601_612" result="shape"/>
<feGaussianBlur stdDeviation="0.5" result="effect2_foregroundBlur_601_612"/>
</filter>
<filter id="filter2_f_601_612" x="68.5707" y="59.7331" width="15.4751" height="10.2033" filterUnits="userSpaceOnUse" color-interpolation-filters="sRGB">
<feFlood flood-opacity="0" result="BackgroundImageFix"/>
<feBlend mode="normal" in="SourceGraphic" in2="BackgroundImageFix" result="shape"/>
<feGaussianBlur stdDeviation="0.5" result="effect1_foregroundBlur_601_612"/>
</filter>
<filter id="filter3_f_601_612" x="58" y="67" width="53" height="43" filterUnits="userSpaceOnUse" color-interpolation-filters="sRGB">
<feFlood flood-opacity="0" result="BackgroundImageFix"/>
<feBlend mode="normal" in="SourceGraphic" in2="BackgroundImageFix" result="shape"/>
<feGaussianBlur stdDeviation="0.5" result="effect1_foregroundBlur_601_612"/>
</filter>
<linearGradient id="paint0_linear_601_612" x1="82.5" y1="57" x2="82.5" y2="83" gradientUnits="userSpaceOnUse">
<stop stop-color="#D57C27" stop-opacity="0"/>
<stop offset="0.276042" stop-color="#D57C27"/>
<stop offset="0.583333" stop-color="#D57C27"/>
</linearGradient>
<linearGradient id="paint1_linear_601_612" x1="84.5" y1="68" x2="35.5697" y2="106.021" gradientUnits="userSpaceOnUse">
<stop offset="0.8125" stop-color="#FFBC2D"/>
<stop offset="1" stop-color="#FECF3B"/>
</linearGradient>
</defs>
</svg>
