<svg width="16" height="17" viewBox="0 0 16 17" fill="none" xmlns="http://www.w3.org/2000/svg">
<path d="M15.216 0.833014C14.7064 0.315684 14.0288 0.0269928 13.324 0.0269928C12.6192 0.0269928 11.9416 0.315684 11.432 0.833014L1.07401 11.8384C0.732617 12.1991 0.46192 12.6282 0.277573 13.1008C0.0932258 13.5734 -0.00111372 14.0801 9.9204e-06 14.5917V15.9375C9.9204e-06 16.2193 0.105367 16.4896 0.292903 16.6888C0.480439 16.8881 0.734793 17 1.00001 17H2.26668C2.74838 17.0014 3.22556 16.9013 3.67059 16.7054C4.11562 16.5095 4.51967 16.2218 4.85934 15.8589L15.216 4.85351C15.7171 4.31995 15.9985 3.597 15.9985 2.84326C15.9985 2.08953 15.7171 1.36658 15.216 0.833014ZM3.44401 14.3565C3.13093 14.687 2.708 14.8733 2.26668 14.875H2.00001V14.5917C2.00138 14.1223 2.1767 13.6724 2.48801 13.3393L10.2 5.14747L11.1553 6.16251L3.44401 14.3565ZM13.8 3.35114L12.5693 4.66085L11.6133 3.6451L12.8467 2.33751C12.9753 2.20688 13.1464 2.13398 13.3243 2.13398C13.5023 2.13398 13.6734 2.20688 13.802 2.33751C13.9277 2.4725 13.9981 2.65485 13.9977 2.84476C13.9974 3.03468 13.9263 3.21672 13.8 3.35114Z" fill="#E94057"/>
</svg>
