<svg width="21" height="24" viewBox="0 0 21 24" fill="none" xmlns="http://www.w3.org/2000/svg">
<path d="M11.7672 10.6974C12.0539 10.8105 12.333 10.9349 12.6045 11.0706C12.8761 11.2063 13.1401 11.3608 13.3966 11.5342C13.2306 11.7151 13.0797 11.9036 12.944 12.0996C12.8082 12.2956 12.6837 12.5067 12.5706 12.7329C11.9898 12.3559 11.3712 12.0695 10.715 11.8734C10.0587 11.6774 9.38362 11.5794 8.68966 11.5794C8.02586 11.5794 7.3847 11.6661 6.76616 11.8395C6.14763 12.0129 5.57058 12.2542 5.03502 12.5632C4.49946 12.8723 4.01293 13.2493 3.57543 13.694C3.13793 14.1388 2.76078 14.6288 2.44397 15.1641C2.12716 15.6993 1.882 16.276 1.70851 16.8942C1.53502 17.5124 1.44828 18.1532 1.44828 18.8166H0C0 17.9119 0.132004 17.0412 0.396013 16.2044C0.660022 15.3676 1.04095 14.5949 1.53879 13.8863C2.03664 13.1776 2.625 12.5482 3.30388 11.9978C3.98276 11.4475 4.75215 11.014 5.61207 10.6974C4.7597 10.1395 4.0959 9.43845 3.62069 8.59412C3.14547 7.74978 2.90409 6.81498 2.89655 5.78972C2.89655 4.99062 3.04741 4.24052 3.34914 3.53942C3.65086 2.83832 4.06196 2.22392 4.58244 1.69621C5.10291 1.1685 5.71767 0.75387 6.42672 0.452322C7.13578 0.150774 7.89009 0 8.68966 0C9.48922 0 10.2398 0.150774 10.9413 0.452322C11.6428 0.75387 12.2575 1.16473 12.7856 1.6849C13.3136 2.20507 13.7284 2.81947 14.0302 3.52811C14.3319 4.23675 14.4828 4.99062 14.4828 5.78972C14.4828 6.28727 14.4224 6.77352 14.3017 7.24846C14.181 7.7234 14 8.17195 13.7586 8.59412C13.5172 9.01628 13.2344 9.40452 12.91 9.75884C12.5857 10.1132 12.2047 10.426 11.7672 10.6974ZM4.34483 5.78972C4.34483 6.39282 4.45797 6.95445 4.68427 7.47462C4.91056 7.99479 5.21983 8.45465 5.61207 8.8542C6.00431 9.25375 6.46444 9.56661 6.99246 9.79277C7.52047 10.0189 8.08621 10.132 8.68966 10.132C9.28556 10.132 9.84752 10.0189 10.3755 9.79277C10.9036 9.56661 11.3637 9.25752 11.7559 8.86551C12.1482 8.4735 12.4612 8.01364 12.695 7.48593C12.9289 6.95822 13.042 6.39282 13.0345 5.78972C13.0345 5.19416 12.9213 4.63253 12.695 4.10482C12.4687 3.57711 12.1595 3.11725 11.7672 2.72524C11.375 2.33323 10.9111 2.02037 10.3755 1.78667C9.83998 1.55297 9.27802 1.43989 8.68966 1.44743C8.08621 1.44743 7.52425 1.56051 7.00377 1.78667C6.4833 2.01283 6.02317 2.32192 5.62338 2.71393C5.2236 3.10594 4.91056 3.56957 4.68427 4.10482C4.45797 4.64007 4.34483 5.2017 4.34483 5.78972ZM21 15.198C21 15.59 20.9397 15.9707 20.819 16.3401C20.6983 16.7095 20.5172 17.0525 20.2759 17.3692V23.1589L17.3793 21.7114L14.4828 23.1589V17.3692C14.2489 17.0525 14.0717 16.7095 13.951 16.3401C13.8303 15.9707 13.7662 15.59 13.7586 15.198C13.7586 14.7005 13.8529 14.2331 14.0415 13.7958C14.2301 13.3586 14.4865 12.9779 14.8109 12.6537C15.1352 12.3295 15.5199 12.0695 15.965 11.8734C16.41 11.6774 16.8815 11.5794 17.3793 11.5794C17.8772 11.5794 18.3448 11.6737 18.7823 11.8621C19.2198 12.0506 19.6008 12.3107 19.9251 12.6424C20.2495 12.9741 20.5097 13.3586 20.7058 13.7958C20.9019 14.2331 21 14.7005 21 15.198ZM17.3793 13.0269C17.0776 13.0269 16.7947 13.0834 16.5307 13.1965C16.2667 13.3096 16.0366 13.4641 15.8405 13.6601C15.6444 13.8561 15.4898 14.0861 15.3766 14.3499C15.2635 14.6138 15.2069 14.8965 15.2069 15.198C15.2069 15.4996 15.2635 15.7823 15.3766 16.0461C15.4898 16.31 15.6444 16.5399 15.8405 16.7359C16.0366 16.9319 16.2667 17.0865 16.5307 17.1995C16.7947 17.3126 17.0776 17.3692 17.3793 17.3692C17.681 17.3692 17.9639 17.3126 18.2279 17.1995C18.4919 17.0865 18.722 16.9319 18.9181 16.7359C19.1142 16.5399 19.2689 16.31 19.382 16.0461C19.4951 15.7823 19.5517 15.4996 19.5517 15.198C19.5517 14.8965 19.4951 14.6138 19.382 14.3499C19.2689 14.0861 19.1142 13.8561 18.9181 13.6601C18.722 13.4641 18.4919 13.3096 18.2279 13.1965C17.9639 13.0834 17.681 13.0269 17.3793 13.0269ZM18.8276 20.8181V18.5113C18.375 18.7148 17.8922 18.8166 17.3793 18.8166C16.8664 18.8166 16.3836 18.7148 15.931 18.5113V20.8181C16.1724 20.6975 16.4138 20.5806 16.6552 20.4676C16.8966 20.3545 17.1379 20.2301 17.3793 20.0944C17.6207 20.2226 17.8621 20.3432 18.1034 20.4563C18.3448 20.5693 18.5862 20.69 18.8276 20.8181Z" fill="#E94040"/>
</svg>
